<svg xmlns="http://www.w3.org/2000/svg" xmlns:xlink="http://www.w3.org/1999/xlink" version="1.1" id="Layer_1" x="0px" y="0px" width="100%" viewBox="0 0 492 492" enable-background="new 0 0 492 492" xml:space="preserve">
    <path fill="#FFFFFF" opacity="000000" stroke="none" d=" M493.000000,216.000000   C493.000000,236.354233 493.000000,256.708466 492.635162,277.229797   C491.852722,278.066498 491.187561,278.691162 491.056671,279.412720   C489.989563,285.296051 489.065948,291.205292 488.017273,297.092133   C482.527100,327.911896 470.129028,356.013214 453.230225,382.064117   C441.007782,400.906006 426.332764,417.794250 409.146912,432.503510   C395.572601,444.121674 381.235565,454.487396 365.568176,463.040710   C338.765076,477.673309 310.367584,487.411224 279.965607,491.075836   C279.243561,491.162842 278.652283,492.334351 278.000000,493.000000   C257.645782,493.000000 237.291550,493.000000 216.770203,492.635162   C215.933563,491.852753 215.308945,491.187531 214.587418,491.056641   C208.704071,489.989532 202.794846,489.065887 196.907990,488.017273   C166.088196,482.527344 137.986938,470.129028 111.936066,453.230377   C93.094147,441.007996 76.205925,426.332886 61.496586,409.147034   C49.878433,395.572662 39.512695,381.235626 30.959314,365.568329   C16.326487,338.765228 6.588938,310.367615 2.924144,279.965607   C2.837107,279.243561 1.665654,278.652283 1.000000,278.000000   C1.000000,257.645782 1.000000,237.291550 1.364819,216.770203   C2.147237,215.933533 2.812462,215.308899 2.943344,214.587311   C4.010469,208.703964 4.934071,202.794724 5.982737,196.907852   C11.472862,166.088104 23.870989,137.986816 40.769741,111.935883   C52.992153,93.093956 67.667267,76.205788 84.853134,61.496513   C98.427444,49.878349 112.764465,39.512592 128.431839,30.959274   C155.234955,16.326609 183.632462,6.588836 214.034470,2.924146   C214.756470,2.837116 215.347748,1.665655 216.000000,1.000001   C236.354233,1.000000 256.708466,1.000000 277.229797,1.364825   C278.066528,2.147245 278.691193,2.812469 279.412781,2.943351   C285.296143,4.010477 291.205383,4.934039 297.092255,5.982744   C327.911957,11.473056 356.013306,23.870981 382.064240,40.769814   C400.906189,52.992279 417.794312,67.667389 432.503571,84.853279   C444.121735,98.427574 454.487518,112.764549 463.040741,128.431946   C477.673279,155.235077 487.411224,183.632477 491.075836,214.034485   C491.162872,214.756470 492.334351,215.347748 493.000000,216.000000  M138.210693,236.500046   C138.210693,197.732513 138.210693,158.964981 138.210693,120.206184   C127.922165,120.206184 118.211281,120.206184 108.034210,120.206184   C108.034210,184.316742 108.034210,248.051514 108.034210,310.561493   C96.042664,313.461334 84.608452,315.619568 73.569672,319.050171   C59.922939,323.291351 48.067936,331.117706 37.166801,340.277435   C36.107090,341.167908 36.060692,343.264282 35.543926,344.800903   C37.293789,344.891296 39.134708,345.354370 40.765125,344.955933   C42.105011,344.628540 43.116295,343.140442 44.407990,342.402771   C55.195591,336.242615 65.600609,329.197235 76.912613,324.216797   C98.351860,314.777618 120.585739,317.537109 142.606262,322.581421   C174.188553,329.815979 205.653564,337.582489 237.316010,344.441711   C269.701538,351.457581 302.493195,354.164856 335.597046,350.716858   C378.984619,346.197815 420.963776,335.329651 462.464417,322.348877   C464.815582,321.613464 468.069763,321.044861 466.555573,317.672150   C466.055328,316.557831 462.583466,315.961243 460.764984,316.386871   C448.472534,319.264160 436.323547,322.770599 423.999786,325.492371   C414.206299,327.655273 404.230408,328.992157 393.754150,330.795898   C393.754150,279.427704 393.754150,229.009827 393.754150,178.506973   C383.576996,178.506973 373.852936,178.506973 363.675415,178.506973   C363.675415,230.441528 363.675415,282.034393 363.675415,334.010071   C352.317719,334.571228 341.399506,335.110626 329.880554,335.679749   C329.880554,267.471802 329.880554,199.746857 329.880554,132.026672   C319.684906,132.026672 310.069092,132.026672 299.784546,132.026672   C299.784546,200.047028 299.784546,267.872803 299.784546,335.929840   C288.193207,335.203369 277.286194,334.519806 265.940918,333.808807   C265.940918,254.026459 265.940918,174.790695 265.940918,95.503899   C255.735886,95.503899 246.012451,95.503899 235.993774,95.503899   C235.993774,173.640991 235.993774,251.438660 235.993774,329.748413   C224.462311,327.434296 213.322006,325.198700 201.888916,322.904327   C201.888916,264.254974 201.888916,206.171143 201.888916,148.229156   C191.746292,148.229156 182.028778,148.229156 171.933746,148.229156   C171.933746,204.721603 171.933746,260.814819 171.933746,316.999237   C160.538116,315.496857 149.541382,314.047089 138.210724,312.553284   C138.210724,287.438721 138.210724,262.469391 138.210693,236.500046  z"/>
    <path fill="#FFFFFF" opacity="000000" stroke="none" d=" M215.531342,1.000001   C215.347748,1.665655 214.756470,2.837116 214.034470,2.924146   C183.632462,6.588836 155.234955,16.326609 128.431839,30.959274   C112.764465,39.512592 98.427444,49.878349 84.853134,61.496513   C67.667267,76.205788 52.992153,93.093956 40.769741,111.935883   C23.870989,137.986816 11.472862,166.088104 5.982737,196.907852   C4.934071,202.794724 4.010469,208.703964 2.943344,214.587311   C2.812462,215.308899 2.147237,215.933533 1.364819,216.301544   C1.000000,144.406296 1.000000,72.812584 1.000000,1.000000   C72.354080,1.000000 143.708374,1.000000 215.531342,1.000001  z"/>
    <path fill="#FFFFFF" opacity="000000" stroke="none" d=" M493.000000,215.531342   C492.334351,215.347748 491.162872,214.756470 491.075836,214.034485   C487.411224,183.632477 477.673279,155.235077 463.040741,128.431946   C454.487518,112.764549 444.121735,98.427574 432.503571,84.853279   C417.794312,67.667389 400.906189,52.992279 382.064240,40.769814   C356.013306,23.870981 327.911957,11.473056 297.092255,5.982744   C291.205383,4.934039 285.296143,4.010477 279.412781,2.943351   C278.691193,2.812469 278.066528,2.147245 277.698486,1.364825   C349.593689,1.000000 421.187378,1.000000 493.000000,1.000000   C493.000000,72.354080 493.000000,143.708374 493.000000,215.531342  z"/>
    <path fill="#FFFFFF" opacity="000000" stroke="none" d=" M1.000000,278.468658   C1.665654,278.652283 2.837107,279.243561 2.924144,279.965607   C6.588938,310.367615 16.326487,338.765228 30.959314,365.568329   C39.512695,381.235626 49.878433,395.572662 61.496586,409.147034   C76.205925,426.332886 93.094147,441.007996 111.936066,453.230377   C137.986938,470.129028 166.088196,482.527344 196.907990,488.017273   C202.794846,489.065887 208.704071,489.989532 214.587418,491.056641   C215.308945,491.187531 215.933563,491.852753 216.301544,492.635162   C144.406311,493.000000 72.812614,493.000000 1.000000,493.000000   C1.000000,421.645935 1.000000,350.291626 1.000000,278.468658  z"/>
    <path fill="#FFFFFF" opacity="000000" stroke="none" d=" M278.468658,493.000000   C278.652283,492.334351 279.243561,491.162842 279.965607,491.075836   C310.367584,487.411224 338.765076,477.673309 365.568176,463.040710   C381.235565,454.487396 395.572601,444.121674 409.146912,432.503510   C426.332764,417.794250 441.007782,400.906006 453.230225,382.064117   C470.129028,356.013214 482.527100,327.911896 488.017273,297.092133   C489.065948,291.205292 489.989563,285.296051 491.056671,279.412720   C491.187561,278.691162 491.852722,278.066498 492.635162,277.698486   C493.000000,349.593689 493.000000,421.187378 493.000000,493.000000   C421.645935,493.000000 350.291626,493.000000 278.468658,493.000000  z"/>
    <style>
        path {
            fill: #435E1C;
        } 
        @media (prefers-color-scheme: dark) {
            path { fill: #73A92F; }
        }
            
    </style>   
    <path opacity="1.000000" stroke="none" d=" M138.210709,237.000061   C138.210724,262.469391 138.210724,287.438721 138.210724,312.553284   C149.541382,314.047089 160.538116,315.496857 171.933746,316.999237   C171.933746,260.814819 171.933746,204.721603 171.933746,148.229156   C182.028778,148.229156 191.746292,148.229156 201.888916,148.229156   C201.888916,206.171143 201.888916,264.254974 201.888916,322.904327   C213.322006,325.198700 224.462311,327.434296 235.993774,329.748413   C235.993774,251.438660 235.993774,173.640991 235.993774,95.503899   C246.012451,95.503899 255.735886,95.503899 265.940918,95.503899   C265.940918,174.790695 265.940918,254.026459 265.940918,333.808807   C277.286194,334.519806 288.193207,335.203369 299.784546,335.929840   C299.784546,267.872803 299.784546,200.047028 299.784546,132.026672   C310.069092,132.026672 319.684906,132.026672 329.880554,132.026672   C329.880554,199.746857 329.880554,267.471802 329.880554,335.679749   C341.399506,335.110626 352.317719,334.571228 363.675415,334.010071   C363.675415,282.034393 363.675415,230.441528 363.675415,178.506973   C373.852936,178.506973 383.576996,178.506973 393.754150,178.506973   C393.754150,229.009827 393.754150,279.427704 393.754150,330.795898   C404.230408,328.992157 414.206299,327.655273 423.999786,325.492371   C436.323547,322.770599 448.472534,319.264160 460.764984,316.386871   C462.583466,315.961243 466.055328,316.557831 466.555573,317.672150   C468.069763,321.044861 464.815582,321.613464 462.464417,322.348877   C420.963776,335.329651 378.984619,346.197815 335.597046,350.716858   C302.493195,354.164856 269.701538,351.457581 237.316010,344.441711   C205.653564,337.582489 174.188553,329.815979 142.606262,322.581421   C120.585739,317.537109 98.351860,314.777618 76.912613,324.216797   C65.600609,329.197235 55.195591,336.242615 44.407990,342.402771   C43.116295,343.140442 42.105011,344.628540 40.765125,344.955933   C39.134708,345.354370 37.293789,344.891296 35.543930,344.800903   C36.060692,343.264282 36.107090,341.167908 37.166801,340.277435   C48.067936,331.117706 59.922939,323.291351 73.569672,319.050171   C84.608452,315.619568 96.042664,313.461334 108.034210,310.561493   C108.034210,248.051514 108.034210,184.316742 108.034210,120.206184   C118.211281,120.206184 127.922165,120.206184 138.210693,120.206184   C138.210693,158.964981 138.210693,197.732513 138.210709,237.000061  z"/>
</svg>